<svg version="1.1" id="Layer_1" xmlns="http://www.w3.org/2000/svg" xmlns:xlink="http://www.w3.org/1999/xlink" x="0px" y="0px"
	 width="100%" viewBox="0 0 180 180" enable-background="new 0 0 180 180" xml:space="preserve">
<path fill="#000000" opacity="1.000000" stroke="none" 
	d="
M121.000000,181.000000 
	C80.666672,181.000000 40.833340,181.000000 1.000005,181.000000 
	C1.000004,121.000008 1.000004,61.000011 1.000002,1.000013 
	C60.999989,1.000009 120.999977,1.000009 180.999969,1.000005 
	C180.999985,60.999985 180.999985,120.999969 181.000000,180.999969 
	C161.166672,181.000000 141.333328,181.000000 121.000000,181.000000 
M110.343658,137.241241 
	C114.997002,146.044952 117.051430,146.819412 129.926071,144.385010 
	C119.899178,129.425995 109.968231,114.610107 100.159195,99.976097 
	C99.801361,100.083260 100.269211,99.933174 100.742516,99.802856 
	C117.213905,95.267792 126.266312,82.901375 125.251030,66.319168 
	C124.362213,51.802612 112.659592,39.315746 96.704773,37.722816 
	C84.824837,36.536724 72.760994,37.186188 60.778831,37.035389 
	C57.866650,36.998741 54.953613,37.029938 52.630787,37.029938 
	C52.630787,73.427475 52.630787,109.101746 52.630787,144.850250 
	C57.578072,144.850250 62.677757,144.850250 67.173859,144.850250 
	C67.173859,130.237015 67.173859,115.862816 67.173859,101.070282 
	C72.446304,101.070282 78.086151,100.977982 83.717949,101.149582 
	C84.820503,101.183174 86.290672,101.962540 86.917061,102.865601 
	C94.680626,114.058395 102.319229,125.337860 110.343658,137.241241 
z"/>
<path fill="#FAFAFA" opacity="1.000000" stroke="none" 
	d="
M110.166832,136.918121 
	C102.319229,125.337860 94.680626,114.058395 86.917061,102.865601 
	C86.290672,101.962540 84.820503,101.183174 83.717949,101.149582 
	C78.086151,100.977982 72.446304,101.070282 67.173859,101.070282 
	C67.173859,115.862816 67.173859,130.237015 67.173859,144.850250 
	C62.677757,144.850250 57.578072,144.850250 52.630787,144.850250 
	C52.630787,109.101746 52.630787,73.427475 52.630787,37.029938 
	C54.953613,37.029938 57.866650,36.998741 60.778831,37.035389 
	C72.760994,37.186188 84.824837,36.536724 96.704773,37.722816 
	C112.659592,39.315746 124.362213,51.802612 125.251030,66.319168 
	C126.266312,82.901375 117.213905,95.267792 100.742516,99.802856 
	C100.269211,99.933174 99.801361,100.083260 100.159195,99.976097 
	C109.968231,114.610107 119.899178,129.425995 129.926071,144.385010 
	C117.051430,146.819412 114.997002,146.044952 110.166832,136.918121 
M70.835808,48.273777 
	C69.426476,48.379681 68.017136,48.485580 66.691254,48.585213 
	C66.691254,62.475975 66.691254,75.853165 66.691254,89.149963 
	C76.105835,89.149963 85.242218,89.722107 94.275024,88.999496 
	C104.655243,88.169106 111.072975,80.186134 111.106552,69.654129 
	C111.141327,58.746025 104.423508,50.195026 94.142052,49.096375 
	C86.740089,48.305416 79.231506,48.512093 70.835808,48.273777 
z"/>
<path fill="#060606" opacity="1.000000" stroke="none" 
	d="
M71.303146,48.273773 
	C79.231506,48.512093 86.740089,48.305416 94.142052,49.096375 
	C104.423508,50.195026 111.141327,58.746025 111.106552,69.654129 
	C111.072975,80.186134 104.655243,88.169106 94.275024,88.999496 
	C85.242218,89.722107 76.105835,89.149963 66.691254,89.149963 
	C66.691254,75.853165 66.691254,62.475975 66.691254,48.585213 
	C68.017136,48.485580 69.426476,48.379681 71.303146,48.273773 
z"/>
</svg>